<svg width="32" height="32" viewBox="0 0 32 32" fill="none" xmlns="http://www.w3.org/2000/svg"><g id="Home-delivery-able"><path id="Union" fill-rule="evenodd" clip-rule="evenodd" d="M3 7C3 5.89543 3.89543 5 5 5H17C18.1046 5 19 5.89543 19 7V10H24.4338C25.1363 10 25.7873 10.3686 26.1488 10.971L28.715 15.248C28.9015 15.5588 29 15.9145 29 16.277V22C29 23.1046 28.1046 24 27 24H25.874C25.4299 25.7252 23.8638 27 22 27C20.0283 27 18.3898 25.5734 18.0604 23.6961C17.753 23.8887 17.3895 24 17 24H12.874C12.4299 25.7252 10.8638 27 9 27C7.12577 27 5.55261 25.711 5.1187 23.9711C3.91896 23.7875 3 22.7511 3 21.5V21C3 20.4477 3.44772 20 4 20C4.55228 20 5 20.4477 5 21V21.5C5 21.6459 5.06252 21.7773 5.16224 21.8687C5.65028 20.2105 7.18378 19 9 19C10.8638 19 12.4299 20.2748 12.874 22H17V16V7H5V8C5 8.55228 4.55228 9 4 9C3.44772 9 3 8.55228 3 8V7ZM19 15V12H24.4338L26.2338 15H19ZM19 17H27V22H25.874C25.4299 20.2748 23.8638 19 22 19C20.8053 19 19.7329 19.5238 19 20.3542V17ZM22 21C23.1046 21 24 21.8954 24 23C24 24.1046 23.1046 25 22 25C20.8954 25 20 24.1046 20 23C20 21.8954 20.8954 21 22 21ZM7 23C7 24.1046 7.89543 25 9 25C10.1046 25 11 24.1046 11 23C11 21.8954 10.1046 21 9 21C7.89543 21 7 21.8954 7 23ZM2 10C1.44772 10 1 10.4477 1 11C1 11.5523 1.44772 12 2 12H7C7.55228 12 8 11.5523 8 11C8 10.4477 7.55228 10 7 10H2ZM3 13C2.44772 13 2 13.4477 2 14C2 14.5523 2.44772 15 3 15H7C7.55228 15 8 14.5523 8 14C8 13.4477 7.55228 13 7 13H3ZM3 17C3 16.4477 3.44772 16 4 16H7C7.55229 16 8 16.4477 8 17C8 17.5523 7.55229 18 7 18H4C3.44772 18 3 17.5523 3 17Z" fill="#4A4A4A"/></g></svg>