<svg xmlns="http://www.w3.org/2000/svg" width="32" height="32" viewBox="0 0 32 32" fill="none"><path fill-rule="evenodd" clip-rule="evenodd" d="M17 5H15C10.5817 5 7 8.58172 7 13L7 14H7.25H8V13C8 9.13401 11.134 6 15 6H17C20.866 6 24 9.13401 24 13V14H24.75H25V13C25 8.58172 21.4183 5 17 5ZM27 14.7639V13C27 7.47715 22.5228 3 17 3H15C9.47715 3 5 7.47715 5 13V14.7639C4.38625 15.3132 4 16.1115 4 17V19C4 20.6569 5.34315 22 7 22H7.25H8C8 25.866 11.134 29 15 29H17C19.7978 29 22.2122 27.3587 23.3328 24.9863C25.3065 24.8238 26.874 23.2283 26.9928 21.2426C27.6107 20.693 28 19.892 28 19V17C28 16.1115 27.6137 15.3132 27 14.7639ZM15 8H17C19.7614 8 22 10.2386 22 13V22C22 22.3425 21.9656 22.6769 21.9 23H18.9146C18.7087 22.4174 18.1531 22 17.5 22H14.5C13.6716 22 13 22.6716 13 23.5V24.5C13 25.3284 13.6716 26 14.5 26H17.5C18.1531 26 18.7087 25.5826 18.9146 25H21.0004C20.0882 26.2144 18.6358 27 17 27H15C12.2386 27 10 24.7614 10 22V13C10 10.2386 12.2386 8 15 8ZM24 22C24 22.2551 23.9864 22.507 23.9597 22.7551C24.2813 22.5789 24.5491 22.3169 24.7324 22H24ZM7 16H7.25V20H7C6.44772 20 6 19.5523 6 19V17C6 16.4477 6.44772 16 7 16ZM25 16H24.75V20H25C25.5523 20 26 19.5523 26 19V17C26 16.4477 25.5523 16 25 16Z" fill="#4A4A4A"/></svg>