<svg width="32" height="32" viewBox="0 0 32 32" fill="none" xmlns="http://www.w3.org/2000/svg"><g id="Ret-able"><path id="Union" fill-rule="evenodd" clip-rule="evenodd" d="M18.4449 13.7024C19.4296 12.3623 20 11.0761 20 10C20 7.79086 18.2091 6 16 6C13.7909 6 12 7.79086 12 10C12 11.0761 12.5704 12.3623 13.5551 13.7024C14.3393 14.7698 15.2651 15.7081 16 16.3815C16.7349 15.7081 17.6607 14.7698 18.4449 13.7024ZM16.8669 18.2881C18.5289 16.8455 22 13.4227 22 10C22 6.68629 19.3137 4 16 4C12.6863 4 10 6.68629 10 10C10 13.4227 13.4712 16.8455 15.1331 18.2881C15.6365 18.7251 16.3635 18.7251 16.8669 18.2881ZM5 11H8.27078C8.45724 11.702 8.72804 12.3724 9.04509 13H5V26H10.5V21.5C10.5 20.9477 10.9477 20.5 11.5 20.5H20.5C21.0523 20.5 21.5 20.9477 21.5 21.5V26H27V13H22.9549C23.272 12.3724 23.5428 11.702 23.7292 11H27C28.1046 11 29 11.8954 29 13V26C29.5523 26 30 26.4477 30 27C30 27.5523 29.5523 28 29 28H3C2.44772 28 2 27.5523 2 27C2 26.4477 2.44772 26 3 26V13C3 11.8954 3.89543 11 5 11ZM19.5 22.5V26H12.5V22.5H19.5ZM17 10C17 10.5523 16.5523 11 16 11C15.4477 11 15 10.5523 15 10C15 9.44772 15.4477 9 16 9C16.5523 9 17 9.44772 17 10ZM19 10C19 11.6569 17.6569 13 16 13C14.3431 13 13 11.6569 13 10C13 8.34315 14.3431 7 16 7C17.6569 7 19 8.34315 19 10Z" fill="#4A4A4A"/></g></svg>